<svg version="1.1" xmlns="http://www.w3.org/2000/svg" viewBox="0 0 561 771" width="561" height="771">
  <!-- svg-source:excalidraw -->
  
  <defs>
    <style class="style-fonts">
      @font-face {
        font-family: "Virgil";
        src: url("https://excalidraw.com/Virgil.woff2");
      }
      @font-face {
        font-family: "Cascadia";
        src: url("https://excalidraw.com/Cascadia.woff2");
      }
    </style>
    
  </defs>
  <rect x="0" y="0" width="561" height="771" fill="#ffffff"></rect><g stroke-linecap="round" transform="translate(10 10) rotate(0 270.5 375.5)"><path d="M7.86 8.16 C7.86 8.16, 7.86 8.16, 7.86 8.16 M7.86 8.16 C7.86 8.16, 7.86 8.16, 7.86 8.16 M4.85 36.01 C13.53 28.31, 19.73 19.1, 34.37 2.05 M4.85 36.01 C14.33 24.28, 24.3 13.74, 34.37 2.05 M4.46 60.85 C18.67 42.58, 33.21 23.23, 55.63 1.98 M4.46 60.85 C17.57 44.61, 31.45 29.22, 55.63 1.98 M4.72 84.93 C23.28 62.26, 43.67 39.67, 76.89 1.91 M4.72 84.93 C26.13 59.46, 49.04 33.5, 76.89 1.91 M4.99 109.01 C40.86 71.71, 74.86 31.02, 98.15 1.85 M4.99 109.01 C32.17 77.95, 59.97 46.43, 98.15 1.85 M4.6 133.85 C41.89 91.91, 77.95 48.9, 119.41 1.78 M4.6 133.85 C38.88 92.04, 76.3 51.47, 119.41 1.78 M4.87 157.93 C43.06 114.08, 82.95 68.08, 140.67 1.71 M4.87 157.93 C36.09 124.74, 64.36 90.54, 140.67 1.71 M4.48 182.77 C58.65 121.62, 114.24 56.08, 161.28 2.39 M4.48 182.77 C52.32 125.64, 102.41 67.92, 161.28 2.39 M4.74 206.85 C65.97 134.56, 127.05 63.89, 182.54 2.32 M4.74 206.85 C62.23 141.33, 119.6 74.4, 182.54 2.32 M5.01 230.93 C53.83 177.16, 102.59 119.25, 203.8 2.26 M5.01 230.93 C61.8 163.57, 119.98 99.23, 203.8 2.26 M4.62 255.77 C65.11 183.65, 127.92 112.43, 225.06 2.19 M4.62 255.77 C59.63 189.96, 116.11 125.71, 225.06 2.19 M4.89 279.85 C101.28 170.23, 196 60.91, 246.32 2.12 M4.89 279.85 C67.22 209.46, 129.88 138.59, 246.32 2.12 M4.5 304.69 C107.46 188.28, 209.65 69.89, 267.58 2.05 M4.5 304.69 C101.97 192.5, 199.97 79.54, 267.58 2.05 M4.76 328.77 C92.91 228.88, 181.06 128.95, 288.84 1.98 M4.76 328.77 C84.7 237.57, 164.86 146.34, 288.84 1.98 M5.03 352.85 C71.22 275.45, 139.1 198.39, 310.1 1.91 M5.03 352.85 C117.03 221.86, 229.72 91.72, 310.1 1.91 M4.64 377.69 C71.86 299.44, 140.1 219.87, 331.36 1.84 M4.64 377.69 C85.43 283.56, 167.8 188.13, 331.36 1.84 M4.91 401.77 C119.7 267.72, 236.94 132.39, 352.62 1.77 M4.91 401.77 C105.08 288.57, 204.86 173.91, 352.62 1.77 M4.52 426.6 C92 324.61, 178.67 224.07, 373.88 1.7 M4.52 426.6 C112.53 300.33, 221.81 175.4, 373.88 1.7 M4.78 450.69 C121.06 315.7, 238.16 180.36, 394.48 2.39 M4.78 450.69 C118.15 321.07, 229.71 191.81, 394.48 2.39 M5.05 474.77 C107 357.27, 208.36 240.59, 415.74 2.32 M5.05 474.77 C156.11 298.55, 308.57 122.9, 415.74 2.32 M4.66 499.6 C135.32 348.22, 267.87 195.89, 437 2.25 M4.66 499.6 C125.09 362.35, 244.52 224.43, 437 2.25 M4.93 523.69 C97.08 414.23, 190.64 306.7, 458.26 2.18 M4.93 523.69 C127.75 378.85, 252.8 235.67, 458.26 2.18 M4.54 548.52 C173.14 356.92, 341.48 164.33, 479.52 2.11 M4.54 548.52 C143.76 388.65, 283.17 229.11, 479.52 2.11 M4.8 572.6 C104.12 456.47, 205.55 339.23, 500.78 2.04 M4.8 572.6 C120.86 440.81, 237.47 307.13, 500.78 2.04 M5.07 596.69 C140.63 440.89, 272.98 288.2, 517.45 7.26 M5.07 596.69 C159.57 418.75, 315.21 239.57, 517.45 7.26 M4.68 621.52 C130.22 477.14, 256.95 330, 535.43 10.96 M4.68 621.52 C171.57 427.38, 338.01 236.15, 535.43 10.96 M4.94 645.6 C144.78 482.11, 286.68 319.49, 545.54 23.72 M4.94 645.6 C123.17 509.11, 240.27 374.75, 545.54 23.72 M4.55 670.44 C132.76 523.22, 258.87 378.81, 551.71 41.01 M4.55 670.44 C121.93 539.3, 237.99 406.36, 551.71 41.01 M4.82 694.52 C117.27 562.49, 231.62 430.78, 551.32 65.85 M4.82 694.52 C151.41 523.52, 299.87 352.9, 551.32 65.85 M2.46 721.62 C119.85 590.1, 234.53 457.99, 551.58 89.93 M2.46 721.62 C142.36 559.64, 283.85 396.62, 551.58 89.93 M7.32 740.42 C206.55 510.16, 404.98 281.74, 551.85 114.01 M7.32 740.42 C140.75 587.39, 272.61 435.23, 551.85 114.01 M20.05 750.16 C191.92 553.32, 365.23 354.56, 551.46 138.85 M20.05 750.16 C138.05 616.13, 255.59 480.9, 551.46 138.85 M36.72 755.38 C149.14 628.39, 260.82 500.59, 551.73 162.93 M36.72 755.38 C158.15 614.59, 281.49 473.25, 551.73 162.93 M57.98 755.31 C176.33 618.83, 294.64 483.05, 551.34 187.77 M57.98 755.31 C207.42 585.28, 356.16 414.03, 551.34 187.77 M79.24 755.24 C196.89 617.36, 315.71 479.87, 551.6 211.85 M79.24 755.24 C223.01 589.53, 366.74 425.08, 551.6 211.85 M100.5 755.17 C251.55 581.39, 403.57 407.07, 551.87 235.93 M100.5 755.17 C251.53 581.33, 402.98 407.67, 551.87 235.93 M121.76 755.1 C289.69 562.57, 456.76 370.57, 551.48 260.77 M121.76 755.1 C211.15 650.65, 302.87 546, 551.48 260.77 M143.02 755.03 C268.74 612.08, 393.35 467.3, 551.75 284.85 M143.02 755.03 C301.76 570.98, 461.37 388, 551.75 284.85 M164.28 754.96 C302.21 597.24, 439.1 439.48, 551.36 309.69 M164.28 754.96 C274.51 629.04, 382.49 504.8, 551.36 309.69 M185.54 754.9 C319.42 602.41, 450.99 449.94, 551.62 333.77 M185.54 754.9 C321.19 597.24, 457.45 440.16, 551.62 333.77 M206.15 755.58 C305.6 637.44, 406.6 521.71, 551.89 357.85 M206.15 755.58 C326.49 614.96, 447.78 474.99, 551.89 357.85 M227.41 755.51 C302.21 669.92, 377.18 584.82, 551.5 382.69 M227.41 755.51 C298.25 673.99, 368.95 592.21, 551.5 382.69 M248.67 755.44 C356.39 629.67, 465.26 502.61, 551.77 406.77 M248.67 755.44 C310.08 684.86, 372.55 612.66, 551.77 406.77 M269.93 755.37 C367.45 641.3, 467.76 527.26, 551.38 431.6 M269.93 755.37 C355.51 658.63, 441.14 559.98, 551.38 431.6 M291.19 755.3 C377.4 654.06, 466.06 554.05, 551.64 455.69 M291.19 755.3 C384.95 645.91, 479.29 538.52, 551.64 455.69 M312.45 755.24 C379.4 676.75, 448.25 599.53, 551.25 480.52 M312.45 755.24 C368.57 691.81, 424.3 628.93, 551.25 480.52 M333.71 755.17 C379.3 702.12, 425.87 651.77, 551.52 504.6 M333.71 755.17 C393.06 689.35, 449.65 623.78, 551.52 504.6 M354.97 755.1 C415.38 684.04, 476.95 615.96, 551.79 528.69 M354.97 755.1 C404.86 698.97, 452.86 642.57, 551.79 528.69 M376.23 755.03 C445.34 678.84, 510.02 599.82, 551.4 553.52 M376.23 755.03 C427.97 693.46, 481.6 632.63, 551.4 553.52 M397.49 754.96 C428.85 721.22, 457.22 686.52, 551.66 577.6 M397.49 754.96 C430.64 714.5, 464.81 675.38, 551.66 577.6 M418.75 754.89 C456 712.19, 493.18 669.46, 551.27 602.44 M418.75 754.89 C470.13 696.27, 520.93 636.7, 551.27 602.44 M439.35 755.58 C470.85 721.88, 501.33 687.88, 551.54 626.52 M439.35 755.58 C471.57 719.85, 501.96 684.8, 551.54 626.52 M460.61 755.51 C493.28 718.73, 525.21 681.51, 551.8 650.6 M460.61 755.51 C494.64 716.6, 529.55 676.5, 551.8 650.6 M481.87 755.44 C505.75 728.46, 531.4 698.49, 551.41 675.44 M481.87 755.44 C506.41 728.44, 528.69 700.87, 551.41 675.44 M503.13 755.37 C513.23 743.89, 523.8 730.82, 551.68 699.52 M503.13 755.37 C515.81 741.8, 527.39 727.48, 551.68 699.52" stroke="#ffffff" stroke-width="2" fill="none"></path><path d="M32 0 M32 0 C198.61 1.72, 365.03 1.32, 509 0 M32 0 C127.77 1.57, 223.75 1.34, 509 0 M509 0 C531.81 0.6, 542.38 10.63, 541 32 M509 0 C531.94 0.11, 539.69 11.71, 541 32 M541 32 C539.67 203.18, 539.89 374.82, 541 719 M541 32 C540.71 244.55, 540.92 456.65, 541 719 M541 719 C542.83 739.86, 530.54 750.68, 509 751 M541 719 C541.38 739.33, 530.33 751.29, 509 751 M509 751 C413.49 753.4, 317.46 752.85, 32 751 M509 751 C393.29 749.43, 278.28 749.58, 32 751 M32 751 C9.86 749.74, 1.2 740.16, 0 719 M32 751 C12.49 748.77, -1.18 740.23, 0 719 M0 719 C2.16 576.86, 1.9 435.26, 0 32 M0 719 C-0.32 463.61, -0.44 208.01, 0 32 M0 32 C0.59 9.41, 11.56 -1.16, 32 0 M0 32 C-0.79 9.66, 10.3 -0.22, 32 0" stroke="#e03131" stroke-width="4" fill="none"></path></g><g stroke-linecap="round" transform="translate(23 37) rotate(0 257.5 196)"><path d="M7.86 8.16 C7.86 8.16, 7.86 8.16, 7.86 8.16 M7.86 8.16 C7.86 8.16, 7.86 8.16, 7.86 8.16 M4.85 36.01 C12.3 29.91, 16.78 22.13, 34.37 2.05 M4.85 36.01 C14.43 23.52, 24.57 12.15, 34.37 2.05 M4.46 60.85 C24.3 37.74, 46.25 13.62, 55.63 1.98 M4.46 60.85 C15.76 46.95, 28.82 32.64, 55.63 1.98 M4.72 84.93 C24.15 62.97, 45.99 36.46, 76.89 1.91 M4.72 84.93 C22.26 65.74, 38.35 48.33, 76.89 1.91 M4.99 109.01 C40.23 64.82, 76.51 22, 98.15 1.85 M4.99 109.01 C31.44 78.33, 56.2 48.93, 98.15 1.85 M4.6 133.85 C47.83 85.95, 87.63 36.51, 119.41 1.78 M4.6 133.85 C40.67 93.47, 75 53.23, 119.41 1.78 M4.87 157.93 C36.78 120.15, 68.98 82.76, 140.67 1.71 M4.87 157.93 C39.13 115.87, 75.36 73.19, 140.67 1.71 M4.48 182.77 C43.98 139.57, 81.9 94.79, 161.28 2.39 M4.48 182.77 C49.48 133, 94.74 81, 161.28 2.39 M4.74 206.85 C60.01 145.15, 116.39 78.45, 182.54 2.32 M4.74 206.85 C73.6 130.91, 141.03 51.82, 182.54 2.32 M5.01 230.93 C73.07 152.95, 140.41 74.61, 203.8 2.26 M5.01 230.93 C79.82 144.07, 156.39 57.29, 203.8 2.26 M4.62 255.77 C74.44 176.92, 143.47 96.92, 225.06 2.19 M4.62 255.77 C56.64 194.99, 108.77 134.83, 225.06 2.19 M4.89 279.85 C75.57 197.44, 147.99 116.83, 246.32 2.12 M4.89 279.85 C89.98 182.55, 175.18 85.2, 246.32 2.12 M4.5 304.69 C70.26 233.09, 134.08 158.81, 267.58 2.05 M4.5 304.69 C79.35 219.05, 154.41 131.83, 267.58 2.05 M4.76 328.77 C104.64 213.78, 203.91 99.89, 288.84 1.98 M4.76 328.77 C88.19 234.32, 171.43 139.08, 288.84 1.98 M5.03 352.85 C79.56 268.28, 154.66 181.42, 310.1 1.91 M5.03 352.85 C69.89 278.15, 134.61 203.25, 310.1 1.91 M5.3 376.93 C124.36 238.35, 243.77 100.61, 331.36 1.84 M5.3 376.93 C77.6 292.93, 151.77 207.64, 331.36 1.84 M14.75 390.45 C134.41 253.32, 254.02 114.88, 352.62 1.77 M14.75 390.45 C129.17 257.21, 244.21 125.94, 352.62 1.77 M33.38 393.4 C110.55 306.79, 185.89 219.2, 373.88 1.7 M33.38 393.4 C141.89 269.2, 250.92 143.39, 373.88 1.7 M54.64 393.33 C170.98 262.13, 286.65 130.3, 394.48 2.39 M54.64 393.33 C128.11 308.15, 201.76 223.08, 394.48 2.39 M75.9 393.26 C147.85 310.33, 221.25 227.46, 415.74 2.32 M75.9 393.26 C167.34 287.67, 259.41 183.04, 415.74 2.32 M97.16 393.19 C187.32 285.98, 279.39 179.99, 437 2.25 M97.16 393.19 C176.01 302.55, 256.07 210.47, 437 2.25 M118.42 393.12 C201.97 298.85, 285.58 202.08, 458.26 2.18 M118.42 393.12 C221.31 274.77, 324.52 157.03, 458.26 2.18 M139.68 393.05 C255.5 258.28, 372.42 123.5, 479.52 2.11 M139.68 393.05 C213.16 309.76, 286.3 225.43, 479.52 2.11 M160.94 392.98 C245.05 295.81, 329.15 201.29, 499.47 3.55 M160.94 392.98 C291.1 242.31, 421.56 91.38, 499.47 3.55 M182.2 392.91 C269.57 292.35, 357.78 190.9, 512.86 12.54 M182.2 392.91 C254.49 310.48, 326.82 227.71, 512.86 12.54 M202.81 393.6 C312.94 266.04, 424.2 137.34, 516.4 32.85 M202.81 393.6 C270.44 315.5, 339.68 236.2, 516.4 32.85 M224.07 393.53 C299.94 305.53, 375.46 218.72, 516.01 57.69 M224.07 393.53 C320.33 281.82, 417.7 170.23, 516.01 57.69 M245.33 393.46 C334.01 291.58, 423.26 189.17, 516.28 81.77 M245.33 393.46 C307.93 320.5, 371.63 246.71, 516.28 81.77 M266.59 393.39 C331.9 317.83, 397.78 241.18, 516.55 105.85 M266.59 393.39 C337.13 310.95, 407.63 229.52, 516.55 105.85 M287.85 393.32 C364.57 304.85, 441.84 214.51, 516.16 130.69 M287.85 393.32 C333.98 339.11, 380.4 285.75, 516.16 130.69 M309.11 393.26 C380.45 315.04, 449.07 234.29, 516.42 154.77 M309.11 393.26 C357.53 336.65, 405.75 281.34, 516.42 154.77 M330.37 393.19 C398.91 311.63, 468.82 235.13, 516.03 179.6 M330.37 393.19 C373.17 344.04, 414.49 296.67, 516.03 179.6 M351.63 393.12 C393.21 348.69, 433.37 302.32, 516.3 203.69 M351.63 393.12 C413.15 322.96, 476.04 250.46, 516.3 203.69 M372.89 393.05 C407.82 356.91, 441.16 319.03, 515.91 228.52 M372.89 393.05 C419.9 337.93, 468.61 282.44, 515.91 228.52 M394.15 392.98 C424.41 354.75, 459.42 318.21, 516.18 252.6 M394.15 392.98 C435.47 346.94, 476.71 297.85, 516.18 252.6 M415.41 392.91 C448.12 356.63, 481.82 316.73, 516.44 276.69 M415.41 392.91 C447.52 357.57, 477.95 319.95, 516.44 276.69 M436.01 393.6 C453.19 372.93, 469.93 352.73, 516.05 301.52 M436.01 393.6 C467.13 358.72, 498.7 321.76, 516.05 301.52 M457.27 393.53 C476.75 371.3, 495.53 348.32, 516.32 325.6 M457.27 393.53 C472.37 376.16, 486.53 357.81, 516.32 325.6 M478.53 393.46 C485.06 382.68, 493.79 374.32, 515.93 350.44 M478.53 393.46 C485.8 382.96, 495.26 373.34, 515.93 350.44" stroke="#ffffff" stroke-width="2" fill="none"></path><path d="M32 0 M32 0 C135.37 -1.76, 238.73 -0.32, 483 0 M32 0 C123.9 -0.14, 216.14 -0.12, 483 0 M483 0 C503.72 1.47, 516.15 9.57, 515 32 M483 0 C502.29 1.9, 515.57 12.39, 515 32 M515 32 C512.65 128.12, 514.63 224.96, 515 360 M515 32 C512.92 103.86, 512.31 174.6, 515 360 M515 360 C516.29 381.14, 502.33 392.72, 483 392 M515 360 C513.48 382.79, 505.53 390.07, 483 392 M483 392 C303.62 392.38, 122.9 392.31, 32 392 M483 392 C376.31 394.29, 269.42 394.31, 32 392 M32 392 C11.05 393.73, 0.04 381.69, 0 360 M32 392 C11.17 393.3, -0.57 380.94, 0 360 M0 360 C1.96 270.97, 1.92 182.44, 0 32 M0 360 C2.2 271.11, 2.16 182.07, 0 32 M0 32 C0.81 9.58, 11.96 1.05, 32 0 M0 32 C-0.55 12.9, 8.39 1.74, 32 0" stroke="#e03131" stroke-width="4" fill="none"></path></g><g stroke-linecap="round" transform="translate(29 470) rotate(0 251.5 78.5)"><path d="M7.86 8.16 C7.86 8.16, 7.86 8.16, 7.86 8.16 M7.86 8.16 C7.86 8.16, 7.86 8.16, 7.86 8.16 M8.78 31.49 C15.78 21.41, 21.91 16.96, 34.37 2.05 M8.78 31.49 C15.47 22.25, 23.47 15.86, 34.37 2.05 M8.39 56.32 C22.95 37.88, 37.31 21.76, 55.63 1.98 M8.39 56.32 C20.05 43.29, 30.43 30.66, 55.63 1.98 M8.66 80.4 C32.64 51.59, 60.03 21.89, 76.89 1.91 M8.66 80.4 C31.55 55.78, 54.07 29.82, 76.89 1.91 M8.93 104.49 C35.06 73.7, 60.11 43.35, 98.15 1.85 M8.93 104.49 C39.38 67.16, 71.09 30.29, 98.15 1.85 M3.29 135.36 C42.03 89.68, 83.22 48.44, 119.41 1.78 M3.29 135.36 C42.06 89.93, 81.17 45.66, 119.41 1.78 M11.43 150.39 C47.92 108.67, 84.35 66.24, 140.67 1.71 M11.43 150.39 C43.2 112.33, 76.34 74.87, 140.67 1.71 M24.16 160.13 C73.77 102.94, 123.87 46.96, 161.28 2.39 M24.16 160.13 C75.22 103.65, 125.12 46.08, 161.28 2.39 M41.48 164.59 C81.55 120.79, 119.59 74.65, 182.54 2.32 M41.48 164.59 C84.9 117.24, 125.09 70.26, 182.54 2.32 M62.09 165.27 C106.63 112.89, 149.94 63.17, 203.8 2.26 M62.09 165.27 C91.79 132.39, 120.3 97.67, 203.8 2.26 M83.35 165.2 C137.61 101.46, 195.38 37.77, 225.06 2.19 M83.35 165.2 C121.24 121.47, 157.74 79.8, 225.06 2.19 M104.61 165.13 C136.3 125.82, 170.43 89.85, 246.32 2.12 M104.61 165.13 C159.52 102.37, 215.13 38.07, 246.32 2.12 M125.87 165.07 C166.7 118.78, 206.54 71.5, 267.58 2.05 M125.87 165.07 C181.13 102.76, 235.27 39.29, 267.58 2.05 M147.13 165 C203.13 102.15, 255.75 36.03, 288.84 1.98 M147.13 165 C177.57 132.01, 205.45 99.79, 288.84 1.98 M168.39 164.93 C211 115.14, 253.9 68.16, 310.1 1.91 M168.39 164.93 C215.17 112, 260.38 58.89, 310.1 1.91 M189.65 164.86 C229.95 118.66, 268.66 72.6, 331.36 1.84 M189.65 164.86 C221.92 126.97, 255.7 89.57, 331.36 1.84 M210.91 164.79 C252.41 116.62, 296.96 63.74, 352.62 1.77 M210.91 164.79 C262.81 103.2, 315.19 42.56, 352.62 1.77 M232.17 164.72 C264.01 128.91, 292.72 95.1, 373.88 1.7 M232.17 164.72 C263.73 128.8, 295.02 92.04, 373.88 1.7 M253.43 164.65 C296.9 116.1, 337.21 68.57, 394.48 2.39 M253.43 164.65 C291.32 122.87, 326.69 81.78, 394.48 2.39 M274.03 165.34 C315.61 118.16, 357.13 69.52, 415.74 2.32 M274.03 165.34 C307.46 126.04, 341.05 86.94, 415.74 2.32 M295.29 165.27 C346.63 104.68, 398.22 45.3, 437 2.25 M295.29 165.27 C346.71 108.79, 395.58 52.51, 437 2.25 M316.55 165.2 C355.14 121.88, 391.48 80, 458.26 2.18 M316.55 165.2 C358.91 117.9, 400.86 69.21, 458.26 2.18 M337.81 165.13 C383.26 113.33, 428.53 60.82, 476.9 5.13 M337.81 165.13 C372.12 128.21, 405.15 89.46, 476.9 5.13 M359.07 165.06 C394.86 120.99, 433.47 81.24, 495.53 8.08 M359.07 165.06 C403.19 115.98, 447.23 65, 495.53 8.08 M380.33 164.99 C420.73 118.55, 461.71 67.71, 506.95 19.33 M380.33 164.99 C424.89 113.5, 471.59 59.89, 506.95 19.33 M401.59 164.92 C430.88 128.48, 464.2 94.63, 514.44 35.11 M401.59 164.92 C446.87 111.99, 491.29 61.58, 514.44 35.11 M422.85 164.85 C458.62 123.15, 498.06 82.85, 514.7 59.2 M422.85 164.85 C457.95 123.38, 492.01 83.19, 514.7 59.2 M444.11 164.79 C464.07 144.36, 480.05 121.74, 514.97 83.28 M444.11 164.79 C467.75 136.73, 491.1 111.52, 514.97 83.28 M471.93 157.17 C484.14 139.42, 497.45 127.13, 515.23 107.36 M471.93 157.17 C480.79 146.42, 490.26 137.12, 515.23 107.36" stroke="#ffffff" stroke-width="2" fill="none"></path><path d="M32 0 M32 0 C136.43 1.09, 240.18 1.23, 471 0 M32 0 C148.97 -2.47, 265.44 -1.76, 471 0 M471 0 C493.41 -0.64, 503.34 12.07, 503 32 M471 0 C494.01 1.4, 502.71 12.14, 503 32 M503 32 C504.38 51.79, 503.48 70.13, 503 125 M503 32 C502.5 53.42, 501.28 76.03, 503 125 M503 125 C501.86 144.85, 493.51 156.76, 471 157 M503 125 C500.87 144.42, 492.55 155.32, 471 157 M471 157 C369.69 157.34, 268.35 158.84, 32 157 M471 157 C381.61 156.97, 292.58 156.99, 32 157 M32 157 C10.06 158.47, 1.15 145.23, 0 125 M32 157 C8.63 158.9, 0.57 148.06, 0 125 M0 125 C-1.35 97.57, 1.53 71.18, 0 32 M0 125 C1.09 105.8, 0.21 84.98, 0 32 M0 32 C1.29 10.47, 8.67 0.72, 32 0 M0 32 C-1.52 12.12, 11.87 -1.93, 32 0" stroke="#e03131" stroke-width="4" fill="none"></path></g><g stroke-linecap="round" transform="translate(32 648) rotate(0 245 23.5)"><path d="M3.13 2.72 C3.13 2.72, 3.13 2.72, 3.13 2.72 M3.13 2.72 C3.13 2.72, 3.13 2.72, 3.13 2.72 M9.3 20.01 C11.38 16.96, 15.42 12.61, 20.45 7.18 M9.3 20.01 C12.73 16.41, 14.76 12.94, 20.45 7.18 M6.94 47.11 C13.72 37.48, 20.46 29.99, 41.71 7.11 M6.94 47.11 C15.42 35.03, 26.06 24.49, 41.71 7.11 M20.33 56.1 C33.95 40.24, 51.16 23.08, 62.97 7.04 M20.33 56.1 C32.12 41.04, 46.11 27.01, 62.97 7.04 M40.93 56.78 C48.22 47.83, 57.62 35.61, 83.58 7.73 M40.93 56.78 C50.26 46.07, 60.87 35.02, 83.58 7.73 M62.19 56.71 C73.96 42, 82.95 30.55, 104.84 7.66 M62.19 56.71 C74.61 42.2, 88.11 26.33, 104.84 7.66 M83.45 56.64 C92.74 45.97, 102.09 31.85, 126.1 7.59 M83.45 56.64 C97.5 39.99, 110.18 26.01, 126.1 7.59 M104.71 56.57 C114.51 42.01, 126.07 30.24, 147.36 7.52 M104.71 56.57 C113.65 45.29, 123.27 35.11, 147.36 7.52 M125.97 56.51 C137.47 44.24, 147.53 34.34, 168.62 7.45 M125.97 56.51 C134.53 45.9, 144.72 35.61, 168.62 7.45 M147.23 56.44 C155.11 45.06, 164.01 34.42, 189.88 7.38 M147.23 56.44 C157.73 43.06, 169.89 29.5, 189.88 7.38 M168.49 56.37 C179.55 47.05, 187.9 36.99, 211.14 7.31 M168.49 56.37 C179.86 43.14, 190.19 30.59, 211.14 7.31 M189.75 56.3 C206.21 37.18, 218.94 22.16, 232.4 7.24 M189.75 56.3 C201.16 44.97, 211.19 32.26, 232.4 7.24 M211.01 56.23 C223.05 40.01, 238.98 23.2, 253.66 7.17 M211.01 56.23 C220.37 44.87, 229.56 34.26, 253.66 7.17 M232.27 56.16 C240.14 46.87, 251.34 35.68, 274.26 7.86 M232.27 56.16 C241.51 44.01, 252.76 32.42, 274.26 7.86 M252.88 56.85 C263.71 44.31, 273.6 33.75, 295.52 7.79 M252.88 56.85 C266.45 42.61, 278.87 27.96, 295.52 7.79 M274.14 56.78 C285.06 44.7, 295.37 30.81, 316.78 7.72 M274.14 56.78 C286.51 41.08, 301.2 26.42, 316.78 7.72 M295.4 56.71 C309.81 39.72, 325.63 22.91, 338.04 7.65 M295.4 56.71 C309.44 40.14, 324.45 24.28, 338.04 7.65 M316.66 56.64 C332.68 38.17, 349 19.91, 359.3 7.58 M316.66 56.64 C324.76 45.51, 334.69 36.25, 359.3 7.58 M337.92 56.57 C351.47 42.42, 363.6 24.88, 380.56 7.51 M337.92 56.57 C354.26 36.68, 371.24 18.71, 380.56 7.51 M359.18 56.5 C375.11 40.39, 389.29 23.37, 401.82 7.45 M359.18 56.5 C372.3 41.76, 383.26 29.1, 401.82 7.45 M380.44 56.43 C397.51 37.62, 410.7 19.63, 423.08 7.38 M380.44 56.43 C396.01 38.55, 412.32 18.99, 423.08 7.38 M401.7 56.36 C412.16 40.19, 424.57 27.07, 444.34 7.31 M401.7 56.36 C416.98 39.17, 431.78 21.06, 444.34 7.31 M422.96 56.29 C433.07 44.52, 443.84 34.89, 465.6 7.24 M422.96 56.29 C432.85 45.89, 442.23 33.98, 465.6 7.24 M444.22 56.23 C459.5 38.3, 474.41 17.2, 488.83 4.91 M444.22 56.23 C453.22 46.18, 462.25 35.05, 488.83 4.91 M464.82 56.91 C475.68 41.13, 490.25 26.98, 500.25 16.16 M464.82 56.91 C475.12 45.65, 487.13 31.55, 500.25 16.16" stroke="#ffffff" stroke-width="2" fill="none"></path><path d="M11.75 0 M11.75 0 C168.16 -0.98, 325.78 -0.48, 478.25 0 M11.75 0 C179.79 -1.57, 348.46 -0.95, 478.25 0 M478.25 0 C485.82 0.9, 488.02 2.67, 490 11.75 M478.25 0 C483.96 -0.81, 490.82 2.31, 490 11.75 M490 11.75 C488.47 17.96, 489.71 19.97, 490 35.25 M490 11.75 C489.32 17.15, 490.51 21.58, 490 35.25 M490 35.25 C488.53 41.62, 487.61 45.07, 478.25 47 M490 35.25 C488.37 43.14, 486.23 46.6, 478.25 47 M478.25 47 C299.2 46.88, 118.31 45.54, 11.75 47 M478.25 47 C299.75 48.37, 121.69 48.18, 11.75 47 M11.75 47 C3.77 48.07, 0.75 41.42, 0 35.25 M11.75 47 C1.67 47, 0.41 45.35, 0 35.25 M0 35.25 C-0.27 27.85, 0.64 23.12, 0 11.75 M0 35.25 C0.86 25.93, 0.29 18.4, 0 11.75 M0 11.75 C-1.08 2.04, 2.69 -1.26, 11.75 0 M0 11.75 C-0.46 5.96, 4.62 1.72, 11.75 0" stroke="#e03131" stroke-width="4" fill="none"></path></g><g transform="translate(53 53) rotate(0 233.427734375 172.5)"><text x="0" y="0" font-family="Helvetica, Segoe UI Emoji" font-size="20px" fill="#e03131" text-anchor="start" style="white-space: pre;" direction="ltr" dominant-baseline="text-before-edge">prompts:</text><text x="0" y="23" font-family="Helvetica, Segoe UI Emoji" font-size="20px" fill="#e03131" text-anchor="start" style="white-space: pre;" direction="ltr" dominant-baseline="text-before-edge">((face)),  (rogue thief:1.2) female wearing (leather </text><text x="0" y="46" font-family="Helvetica, Segoe UI Emoji" font-size="20px" fill="#e03131" text-anchor="start" style="white-space: pre;" direction="ltr" dominant-baseline="text-before-edge">armor:1.2),(white silk cloak), (fabric with intricate </text><text x="0" y="69" font-family="Helvetica, Segoe UI Emoji" font-size="20px" fill="#e03131" text-anchor="start" style="white-space: pre;" direction="ltr" dominant-baseline="text-before-edge">pattern:1.2), (insanely detailed:1.5), (highest quality,</text><text x="0" y="92" font-family="Helvetica, Segoe UI Emoji" font-size="20px" fill="#e03131" text-anchor="start" style="white-space: pre;" direction="ltr" dominant-baseline="text-before-edge">Alessandro Casagrande,Greg Rutkowski, Sally </text><text x="0" y="115" font-family="Helvetica, Segoe UI Emoji" font-size="20px" fill="#e03131" text-anchor="start" style="white-space: pre;" direction="ltr" dominant-baseline="text-before-edge">Mann, concept art, 4k), Greg Rutkowski, Sally Mann,</text><text x="0" y="138" font-family="Helvetica, Segoe UI Emoji" font-size="20px" fill="#e03131" text-anchor="start" style="white-space: pre;" direction="ltr" dominant-baseline="text-before-edge"> concept art, 4k), (analog:1.2), (high sharpness),</text><text x="0" y="161" font-family="Helvetica, Segoe UI Emoji" font-size="20px" fill="#e03131" text-anchor="start" style="white-space: pre;" direction="ltr" dominant-baseline="text-before-edge">(detailed pupils:1.1), (painting:1.1), (digital</text><text x="0" y="184" font-family="Helvetica, Segoe UI Emoji" font-size="20px" fill="#e03131" text-anchor="start" style="white-space: pre;" direction="ltr" dominant-baseline="text-before-edge">painting:1.1),detailed face and eyes, Masterpiece, </text><text x="0" y="207" font-family="Helvetica, Segoe UI Emoji" font-size="20px" fill="#e03131" text-anchor="start" style="white-space: pre;" direction="ltr" dominant-baseline="text-before-edge">best quality, (highly detailed photo:1.1), 8k, photor</text><text x="0" y="230" font-family="Helvetica, Segoe UI Emoji" font-size="20px" fill="#e03131" text-anchor="start" style="white-space: pre;" direction="ltr" dominant-baseline="text-before-edge">ealistic, (young woman:1.1), By jeremy mann, </text><text x="0" y="253" font-family="Helvetica, Segoe UI Emoji" font-size="20px" fill="#e03131" text-anchor="start" style="white-space: pre;" direction="ltr" dominant-baseline="text-before-edge">by sandra chevrier, by maciej kuciara, sharp, </text><text x="0" y="276" font-family="Helvetica, Segoe UI Emoji" font-size="20px" fill="#e03131" text-anchor="start" style="white-space: pre;" direction="ltr" dominant-baseline="text-before-edge">(perfect body:1.1), realistic, real shadow, 3d, </text><text x="0" y="299" font-family="Helvetica, Segoe UI Emoji" font-size="20px" fill="#e03131" text-anchor="start" style="white-space: pre;" direction="ltr" dominant-baseline="text-before-edge">(asian temple background:1.2), (by Michelangelo)</text><text x="0" y="322" font-family="Helvetica, Segoe UI Emoji" font-size="20px" fill="#e03131" text-anchor="start" style="white-space: pre;" direction="ltr" dominant-baseline="text-before-edge"></text></g><g transform="translate(55 493.60000000000036) rotate(0 111.201171875 34.5)"><text x="0" y="0" font-family="Helvetica, Segoe UI Emoji" font-size="20px" fill="#e03131" text-anchor="start" style="white-space: pre;" direction="ltr" dominant-baseline="text-before-edge">negative prompts:</text><text x="0" y="23" font-family="Helvetica, Segoe UI Emoji" font-size="20px" fill="#e03131" text-anchor="start" style="white-space: pre;" direction="ltr" dominant-baseline="text-before-edge">easynegative badhandv4</text><text x="0" y="46" font-family="Helvetica, Segoe UI Emoji" font-size="20px" fill="#e03131" text-anchor="start" style="white-space: pre;" direction="ltr" dominant-baseline="text-before-edge"></text></g><g transform="translate(46 669) rotate(0 72.8076171875 11.5)"><text x="0" y="0" font-family="Helvetica, Segoe UI Emoji" font-size="20px" fill="#e03131" text-anchor="start" style="white-space: pre;" direction="ltr" dominant-baseline="text-before-edge">sampler: Euler a</text></g></svg>