<svg version="1.1" xmlns="http://www.w3.org/2000/svg" viewBox="0 0 575 501" width="575" height="501">
  <!-- svg-source:excalidraw -->
  
  <defs>
    <style class="style-fonts">
      @font-face {
        font-family: "Virgil";
        src: url("https://excalidraw.com/Virgil.woff2");
      }
      @font-face {
        font-family: "Cascadia";
        src: url("https://excalidraw.com/Cascadia.woff2");
      }
    </style>
    
  </defs>
  <rect x="0" y="0" width="575" height="501" fill="#ffffff"></rect><g stroke-linecap="round" transform="translate(25 10) rotate(0 103 36.5)"><path d="M4.86 4.22 C4.86 4.22, 4.86 4.22, 4.86 4.22 M4.86 4.22 C4.86 4.22, 4.86 4.22, 4.86 4.22 M10.37 22.27 C14.3 19.7, 18.88 15.87, 24.81 5.66 M10.37 22.27 C12.92 19.05, 16.52 15.81, 24.81 5.66 M9.98 47.1 C21.42 33.34, 34.33 20.5, 46.07 5.59 M9.98 47.1 C19.13 34.85, 30.78 22.68, 46.07 5.59 M8.94 72.69 C24.88 54.42, 37.73 37.72, 67.33 5.53 M8.94 72.69 C24.83 52.54, 42.1 32.82, 67.33 5.53 M24.95 78.66 C50.18 48.51, 75.11 18.21, 88.59 5.46 M24.95 78.66 C50.12 50.39, 73.1 23.17, 88.59 5.46 M46.21 78.59 C69.06 52.43, 91.19 27.48, 109.85 5.39 M46.21 78.59 C69.81 51.72, 93.99 25.01, 109.85 5.39 M67.47 78.53 C88.33 56.63, 107.36 33.12, 131.11 5.32 M67.47 78.53 C89.85 52.15, 112.56 25.23, 131.11 5.32 M88.73 78.46 C108.58 57.32, 126.96 36.72, 151.71 6 M88.73 78.46 C112.28 52.13, 134.58 27.58, 151.71 6 M109.99 78.39 C126.33 64.05, 140.68 46.18, 172.97 5.94 M109.99 78.39 C128.42 57.92, 146.66 35.04, 172.97 5.94 M130.59 79.07 C152.8 51.37, 173.97 30.02, 197.51 2.09 M130.59 79.07 C145.93 61.75, 160.14 45.52, 197.51 2.09 M151.85 79 C171.15 55.33, 190.48 32.73, 206.96 15.61 M151.85 79 C170.8 56.99, 190.16 34.44, 206.96 15.61 M173.11 78.93 C182.95 66.18, 190.33 58.31, 207.23 39.69 M173.11 78.93 C182.61 69.11, 190.16 57.99, 207.23 39.69" stroke="#ffffff" stroke-width="2" fill="none"></path><path d="M18.25 0 M18.25 0 C57.19 0.08, 96.08 -0.6, 187.75 0 M18.25 0 C68.52 0.09, 119.77 1.23, 187.75 0 M187.75 0 C199.02 -0.78, 205.63 7.6, 206 18.25 M187.75 0 C198.94 -0.21, 205.6 4.22, 206 18.25 M206 18.25 C205.39 29.59, 206.5 40.65, 206 54.75 M206 18.25 C206.31 32.78, 206.74 47.78, 206 54.75 M206 54.75 C204.55 65.76, 199.68 74.83, 187.75 73 M206 54.75 C205.82 67.83, 201.1 74.82, 187.75 73 M187.75 73 C139.8 72.81, 89.85 71.93, 18.25 73 M187.75 73 C145.83 72.03, 104.11 71.75, 18.25 73 M18.25 73 C7.16 72.7, 0.56 68.34, 0 54.75 M18.25 73 C4.69 72.71, -1.69 65.46, 0 54.75 M0 54.75 C-0.7 44.78, -1.86 31.54, 0 18.25 M0 54.75 C0.08 47.06, -0.76 37.88, 0 18.25 M0 18.25 C-0.8 5.34, 7.71 0.27, 18.25 0 M0 18.25 C0.11 6.82, 6.35 1.58, 18.25 0" stroke="#e03131" stroke-width="4" fill="none"></path></g><g transform="translate(78.08003234863281 34) rotate(0 49.91996765136719 12.5)"><text x="49.91996765136719" y="0" font-family="Virgil, Segoe UI Emoji" font-size="20px" fill="#e03131" text-anchor="middle" style="white-space: pre;" direction="ltr" dominant-baseline="text-before-edge">文字(text)</text></g><g stroke-linecap="round" transform="translate(15 206) rotate(0 104 36)"><path d="M4.79 4.16 C4.79 4.16, 4.79 4.16, 4.79 4.16 M4.79 4.16 C4.79 4.16, 4.79 4.16, 4.79 4.16 M10.31 22.21 C15.7 18.56, 17.89 10.54, 24.74 5.61 M10.31 22.21 C14.07 17.47, 19.27 12.36, 24.74 5.61 M9.92 47.05 C23.28 31.71, 40.03 15.6, 46 5.54 M9.92 47.05 C20.9 34.11, 32.01 21.66, 46 5.54 M10.18 71.13 C31.55 48.99, 49.32 23.53, 67.26 5.47 M10.18 71.13 C32.75 45.29, 53.07 20.53, 67.26 5.47 M24.88 78.61 C48.62 49.88, 74.29 21.92, 88.52 5.4 M24.88 78.61 C44.74 54.53, 65.63 30.78, 88.52 5.4 M46.14 78.54 C66.4 56.86, 82.43 37, 109.12 6.08 M46.14 78.54 C69.88 52.18, 93.83 25.44, 109.12 6.08 M67.4 78.47 C85.75 58.06, 106.92 36.69, 130.38 6.02 M67.4 78.47 C86.61 56.19, 104.43 34.79, 130.38 6.02 M88.66 78.4 C109.67 56.12, 127 36.54, 151.64 5.95 M88.66 78.4 C110.49 51.99, 134.01 25.9, 151.64 5.95 M109.92 78.33 C124.97 60.05, 144.27 40.05, 172.9 5.88 M109.92 78.33 C126.83 59.4, 142.27 41.23, 172.9 5.88 M131.18 78.26 C156.32 47.76, 182.4 21.82, 198.1 1.28 M131.18 78.26 C156.99 48.51, 183.14 20.12, 198.1 1.28 M152.44 78.19 C175.17 55.27, 193.64 27.61, 208.21 14.04 M152.44 78.19 C168.33 60.26, 184.8 41.2, 208.21 14.04 M173.7 78.12 C183.52 68.03, 192.84 53.18, 207.82 38.88 M173.7 78.12 C184.13 66.26, 193.49 56.68, 207.82 38.88" stroke="#ffffff" stroke-width="2" fill="none"></path><path d="M18 0 M18 0 C65.78 -1.48, 114.5 -2.5, 190 0 M18 0 C67.87 1.32, 117.46 0.02, 190 0 M190 0 C200.42 0.39, 208.2 6.29, 208 18 M190 0 C202.88 -1.58, 206.31 5.08, 208 18 M208 18 C208.39 28.11, 208.52 38.31, 208 54 M208 18 C208.26 31.66, 208.22 45.62, 208 54 M208 54 C209.94 65.57, 202.18 73.03, 190 72 M208 54 C207.81 65.14, 202.79 72.43, 190 72 M190 72 C122.19 71.06, 54.07 71.85, 18 72 M190 72 C123.3 72.81, 58.91 73.44, 18 72 M18 72 C4.11 72.03, -0.48 66.29, 0 54 M18 72 C7.74 70.84, -0.08 67.09, 0 54 M0 54 C-0.73 44.59, 0.6 32.74, 0 18 M0 54 C0.94 44.45, -0.16 36.37, 0 18 M0 18 C1.89 6, 6.94 0.5, 18 0 M0 18 C-0.18 8.22, 5.06 -2.22, 18 0" stroke="#e03131" stroke-width="4" fill="none"></path></g><g transform="translate(65.80003356933594 229.5) rotate(0 53.19996643066406 12.5)"><text x="53.19996643066406" y="0" font-family="Virgil, Segoe UI Emoji" font-size="20px" fill="#e03131" text-anchor="middle" style="white-space: pre;" direction="ltr" dominant-baseline="text-before-edge">图片(image)</text></g><g stroke-linecap="round" transform="translate(10 407) rotate(0 101 42)"><path d="M4.93 5.61 C4.93 5.61, 4.93 5.61, 4.93 5.61 M4.93 5.61 C4.93 5.61, 4.93 5.61, 4.93 5.61 M9.79 24.41 C11.66 18.17, 18.36 14.99, 26.85 4.79 M9.79 24.41 C14.77 18.41, 18.33 13.07, 26.85 4.79 M10.06 48.49 C21.93 32.54, 33.79 19.76, 48.11 4.72 M10.06 48.49 C23.34 32.68, 38.44 16.11, 48.11 4.72 M8.36 74.84 C23.54 55.9, 39.96 36.15, 69.37 4.65 M8.36 74.84 C27.52 50.93, 48.15 27.36, 69.37 4.65 M21.09 84.58 C49.02 53.1, 77.13 23.15, 90.63 4.58 M21.09 84.58 C38.28 66.39, 53.59 48.77, 90.63 4.58 M42.35 84.51 C68.69 56.49, 94.25 26.45, 111.23 5.27 M42.35 84.51 C58.36 65.17, 76.06 45.91, 111.23 5.27 M63.61 84.44 C85.65 60.77, 105.79 33.89, 132.49 5.2 M63.61 84.44 C79.95 65.99, 94.99 48.96, 132.49 5.2 M84.87 84.38 C100.58 68.37, 115.03 52.2, 153.75 5.13 M84.87 84.38 C101.01 67.14, 117.45 48.05, 153.75 5.13 M106.13 84.31 C130.79 57.08, 151.69 31.85, 175.02 5.06 M106.13 84.31 C124.08 64.76, 140.42 45.69, 175.02 5.06 M127.39 84.24 C147.97 63.03, 166.81 38.6, 195.62 5.75 M127.39 84.24 C149.63 59.57, 172.64 34.24, 195.62 5.75 M148.65 84.17 C160.71 68.84, 172 57.03, 205.07 19.26 M148.65 84.17 C165.87 64.51, 183.69 42.95, 205.07 19.26 M169.91 84.1 C182.86 70.21, 193.86 54.8, 205.34 43.35 M169.91 84.1 C176.56 76.19, 185.01 67.64, 205.34 43.35 M186.58 89.31 C193.47 82.75, 194.62 78.9, 201.01 72.71 M186.58 89.31 C190.51 85.07, 193.77 81.2, 201.01 72.71" stroke="#ffffff" stroke-width="2" fill="none"></path><path d="M21 0 M21 0 C52.83 1.16, 88.55 -0.94, 181 0 M21 0 C77.6 -0.44, 132.75 -1.15, 181 0 M181 0 C195.44 -0.41, 200.48 8.8, 202 21 M181 0 C197.1 -1.79, 199.84 6.54, 202 21 M202 21 C202.22 33.67, 201.44 43.29, 202 63 M202 21 C202.26 37.87, 201.65 54.55, 202 63 M202 63 C202.74 75.19, 194.04 82.34, 181 84 M202 63 C203.94 78.53, 195.78 84.69, 181 84 M181 84 C130.68 85.21, 79.25 82.92, 21 84 M181 84 C142.84 84.7, 105.53 85.12, 21 84 M21 84 C7.84 82.32, -0.42 76.68, 0 63 M21 84 C6.12 82.45, -1.3 77.39, 0 63 M0 63 C0.29 51.02, -0.59 37.1, 0 21 M0 63 C0.33 53.01, -0.66 44.3, 0 21 M0 21 C-1.15 8.57, 7.96 0.59, 21 0 M0 21 C1.93 6.8, 6.75 -1.93, 21 0" stroke="#e03131" stroke-width="4" fill="none"></path></g><g transform="translate(59.35003662109375 436.5) rotate(0 51.64996337890625 12.5)"><text x="51.64996337890625" y="0" font-family="Virgil, Segoe UI Emoji" font-size="20px" fill="#e03131" text-anchor="middle" style="white-space: pre;" direction="ltr" dominant-baseline="text-before-edge">视频(video)</text></g><g stroke-linecap="round" transform="translate(334 200) rotate(0 115.5 40.5)"><path d="M5.39 4.69 C5.39 4.69, 5.39 4.69, 5.39 4.69 M5.39 4.69 C5.39 4.69, 5.39 4.69, 5.39 4.69 M10.25 23.48 C11.8 19.86, 18.23 15.29, 25.99 5.37 M10.25 23.48 C15.16 16.9, 19.82 11.61, 25.99 5.37 M9.86 48.32 C22.91 32.71, 32.44 18.95, 47.25 5.3 M9.86 48.32 C22.16 33.82, 33 20.36, 47.25 5.3 M6.19 76.93 C22.09 58.63, 38.62 40.5, 68.51 5.23 M6.19 76.93 C31.19 48.27, 55.66 19.88, 68.51 5.23 M22.2 82.9 C50.22 51.82, 75.26 21.82, 89.77 5.16 M22.2 82.9 C43.19 58.58, 63.89 33.87, 89.77 5.16 M43.46 82.83 C62.96 58.99, 78.98 40.29, 111.03 5.1 M43.46 82.83 C65.01 58.74, 87.07 33.86, 111.03 5.1 M64.72 82.76 C83.02 60.7, 103.43 38.2, 132.3 5.03 M64.72 82.76 C85.68 57.47, 108.24 33.11, 132.3 5.03 M85.98 82.69 C104.38 61.64, 123.44 39.19, 153.56 4.96 M85.98 82.69 C113.63 52.19, 139.6 22.46, 153.56 4.96 M107.24 82.62 C129.29 57.48, 149.91 36.2, 174.82 4.89 M107.24 82.62 C120.34 67.03, 134.36 51.06, 174.82 4.89 M128.5 82.55 C150 57.97, 172.17 30.41, 196.08 4.82 M128.5 82.55 C153.22 52.55, 180.2 21.49, 196.08 4.82 M149.76 82.49 C163.46 65.61, 179.7 50.09, 219.96 1.73 M149.76 82.49 C167.16 61.83, 186 40.07, 219.96 1.73 M171.02 82.42 C188.49 64.69, 203.3 46.56, 232.69 11.47 M171.02 82.42 C194.19 56.72, 215.6 29.52, 232.69 11.47 M191.63 83.1 C207.65 62.8, 226.54 42.58, 242.14 24.99 M191.63 83.1 C202.29 69.95, 213.02 58.23, 242.14 24.99 M212.89 83.03 C218.96 77.21, 223.81 69.36, 231.91 61.15 M212.89 83.03 C217.56 77.58, 220.85 73.41, 231.91 61.15" stroke="#ffffff" stroke-width="2" fill="none"></path><path d="M20.25 0 M20.25 0 C67.06 0.76, 112.51 -1.13, 210.75 0 M20.25 0 C60.58 1.29, 102.53 1.69, 210.75 0 M210.75 0 C223.86 -0.52, 229.75 7.57, 231 20.25 M210.75 0 C224.62 2.17, 232.13 4.46, 231 20.25 M231 20.25 C230.96 35.79, 229.17 49.9, 231 60.75 M231 20.25 C231.47 31.01, 231.75 43.39, 231 60.75 M231 60.75 C231.45 75.12, 225.82 81.89, 210.75 81 M231 60.75 C230.83 72.1, 222.85 81.89, 210.75 81 M210.75 81 C137.34 80.19, 63.24 80.24, 20.25 81 M210.75 81 C156.86 78.61, 102.03 79.91, 20.25 81 M20.25 81 C5.3 79.8, -0.26 73.38, 0 60.75 M20.25 81 C8.83 82.2, 2.13 76.39, 0 60.75 M0 60.75 C0.59 52.23, 1.84 39.53, 0 20.25 M0 60.75 C1.14 46.93, 0.52 32.64, 0 20.25 M0 20.25 C1.33 7.07, 8.66 1.29, 20.25 0 M0 20.25 C-0.33 7.32, 4.54 -1.44, 20.25 0" stroke="#e03131" stroke-width="4" fill="none"></path></g><g transform="translate(396.30003356933594 228) rotate(0 53.19996643066406 12.5)"><text x="53.19996643066406" y="0" font-family="Virgil, Segoe UI Emoji" font-size="20px" fill="#e03131" text-anchor="middle" style="white-space: pre;" direction="ltr" dominant-baseline="text-before-edge">图片(image)</text></g><g stroke-linecap="round"><g transform="translate(121 94) rotate(0 -0.8372940633446433 54.36526979964219)"><path d="M0.46 0.14 C0.3 18.25, -1.84 90.01, -2.13 108.02 M-0.76 -0.83 C-0.47 17.53, 0.22 91.16, -0.02 109.56" stroke="#e03131" stroke-width="4" fill="none"></path></g><g transform="translate(121 94) rotate(0 -0.8372940633446433 54.36526979964219)"><path d="M10.27 26.68 C8.26 22.33, 6.57 18.54, -0.55 0.07 M10.54 28.08 C7.47 18.81, 3.7 8.24, 0.21 -0.81" stroke="#e03131" stroke-width="4" fill="none"></path></g><g transform="translate(121 94) rotate(0 -0.8372940633446433 54.36526979964219)"><path d="M-10.25 26.19 C-8.08 21.86, -5.59 18.17, -0.55 0.07 M-9.98 27.59 C-5.92 18.62, -2.57 8.22, 0.21 -0.81" stroke="#e03131" stroke-width="4" fill="none"></path></g><g transform="translate(121 94) rotate(0 -0.8372940633446433 54.36526979964219)"><path d="M-10.04 79.48 C-8.3 86.59, -5.95 94.33, -1.03 109.49 M-9.78 80.89 C-5.93 91.41, -2.81 100.5, -0.26 108.61" stroke="#e03131" stroke-width="4" fill="none"></path></g><g transform="translate(121 94) rotate(0 -0.8372940633446433 54.36526979964219)"><path d="M10.48 79.48 C8.04 86.67, 6.21 94.41, -1.03 109.49 M10.75 80.89 C7.47 91.27, 3.46 100.36, -0.26 108.61" stroke="#e03131" stroke-width="4" fill="none"></path></g></g><mask></mask><g stroke-linecap="round"><g transform="translate(114 290) rotate(0 -1.3363214943556159 54.0892582286524)"><path d="M0.35 0.65 C-0.12 18.33, -2.68 89.12, -3.02 106.8 M-0.92 -0.05 C-1.02 17.75, -0.61 90.23, -0.85 108.23" stroke="#e03131" stroke-width="4" fill="none"></path></g><g transform="translate(114 290) rotate(0 -1.3363214943556159 54.0892582286524)"><path d="M10.77 27.46 C6.52 21.52, 3.78 11.45, 2.16 2.48 M9.35 28.24 C6.89 23.11, 6.53 16.39, 0.29 1.62" stroke="#e03131" stroke-width="4" fill="none"></path></g><g transform="translate(114 290) rotate(0 -1.3363214943556159 54.0892582286524)"><path d="M-9.74 26.78 C-8.15 20.98, -5.05 11.1, 2.16 2.48 M-11.16 27.57 C-9.07 22.63, -4.87 16.05, 0.29 1.62" stroke="#e03131" stroke-width="4" fill="none"></path></g><g transform="translate(114 290) rotate(0 -1.3363214943556159 54.0892582286524)"><path d="M-9.95 78.31 C-8.3 88.45, -5.48 94.51, 0.95 110.06 M-11.37 79.09 C-10.03 86.61, -6.05 92.49, -0.91 109.2" stroke="#e03131" stroke-width="4" fill="none"></path></g><g transform="translate(114 290) rotate(0 -1.3363214943556159 54.0892582286524)"><path d="M10.57 78.36 C6.38 88.55, 3.36 94.59, 0.95 110.06 M9.15 79.15 C5.93 86.61, 5.36 92.48, -0.91 109.2" stroke="#e03131" stroke-width="4" fill="none"></path></g></g><mask></mask><g stroke-linecap="round"><g transform="translate(229 243) rotate(0 47.969571224655965 1.4325853676527913)"><path d="M0.26 0.79 C16.36 1.18, 80.75 2.38, 97 2.71 M-1.06 0.16 C14.84 0.17, 79.65 0.85, 96.05 0.96" stroke="#e03131" stroke-width="4" fill="none"></path></g><g transform="translate(229 243) rotate(0 47.969571224655965 1.4325853676527913)"><path d="M29.97 -8.91 C20.37 -4.39, 10.96 -3.45, -1.01 1.94 M28.8 -9.24 C17.94 -6.17, 6.22 -1.7, -0.12 0.12" stroke="#e03131" stroke-width="4" fill="none"></path></g><g transform="translate(229 243) rotate(0 47.969571224655965 1.4325853676527913)"><path d="M29.56 11.61 C20.04 9.27, 10.76 3.36, -1.01 1.94 M28.39 11.28 C17.77 6.33, 6.2 2.78, -0.12 0.12" stroke="#e03131" stroke-width="4" fill="none"></path></g><g transform="translate(229 243) rotate(0 47.969571224655965 1.4325853676527913)"><path d="M69.09 10.97 C78.37 8.78, 87.88 3.14, 94.78 2.1 M67.92 10.64 C79.28 6.43, 89.7 3.2, 95.67 0.28" stroke="#e03131" stroke-width="4" fill="none"></path></g><g transform="translate(229 243) rotate(0 47.969571224655965 1.4325853676527913)"><path d="M69.26 -9.55 C78.55 -4.89, 88 -3.67, 94.78 2.1 M68.09 -9.88 C79.32 -6.07, 89.67 -1.29, 95.67 0.28" stroke="#e03131" stroke-width="4" fill="none"></path></g></g><mask></mask></svg>