<?xml version="1.0" standalone="no"?><!DOCTYPE svg PUBLIC "-//W3C//DTD SVG 1.1//EN" "http://www.w3.org/Graphics/SVG/1.1/DTD/svg11.dtd"><svg height="238" node-id="1" sillyvg="true" template-height="238" template-width="256" version="1.1" viewBox="0 0 256 238" width="256" xmlns="http://www.w3.org/2000/svg" xmlns:xlink="http://www.w3.org/1999/xlink"><defs node-id="292"></defs><g node-id="394"><g node-id="400"><g node-id="411"><path d="M 250.18 125.01 C 250.18 86.72 219.07 55.69 180.69 55.69 C 180.10 55.69 179.51 55.72 178.92 55.73 C 166.80 35.42 144.59 21.80 119.17 21.80 C 80.79 21.80 49.68 52.84 49.68 91.13 C 49.68 91.63 49.70 92.11 49.72 92.61 C 49.72 113.34 14.56 127.05 14.56 152.87 C 14.56 191.16 45.67 222.19 84.05 222.19 C 86.23 222.19 88.39 222.08 90.52 221.88 C 118.67 221.88 122.55 234.21 144.14 234.21 C 179.62 234.21 208.85 220.58 213.09 186.34 C 222.85 162.44 250.18 151.63 250.18 125.01 Z" fill="#bddbff" fill-opacity="0.39" fill-rule="nonzero" group-id="1,7,18" node-id="297" stroke="none" target-height="212.41" target-width="235.62" target-x="14.56" target-y="21.8"></path></g></g></g><g node-id="395"><path d="M 212.74 96.02 C 212.74 108.82 202.36 119.20 189.56 119.20 C 176.76 119.20 166.39 108.82 166.39 96.02 C 166.39 83.22 176.76 72.84 189.56 72.84 C 202.36 72.84 212.74 83.22 212.74 96.02 Z" fill="#f0f0ff" fill-opacity="0.67" fill-rule="nonzero" group-id="2" node-id="304" stroke="none" target-height="46.36" target-width="46.350006" target-x="166.39" target-y="72.84"></path><g node-id="401"><path d="M 232.04 98.99 L 232.04 91.34 L 221.94 89.42 C 221.60 87.41 221.08 85.47 220.39 83.60 L 228.33 77.18 L 224.50 70.56 L 214.80 73.94 C 213.52 72.40 212.09 70.97 210.56 69.69 L 214.22 60.15 L 207.60 56.33 L 200.89 64.10 C 199.04 63.41 197.09 62.89 195.08 62.54 L 193.49 52.45 L 185.85 52.45 L 183.92 62.54 C 181.92 62.89 179.97 63.41 178.11 64.09 L 171.69 56.15 L 165.07 59.98 L 168.45 69.68 C 166.90 70.97 165.48 72.39 164.21 73.93 L 154.66 70.26 L 150.84 76.88 L 158.61 83.59 C 157.93 85.46 157.40 87.39 157.06 89.40 L 146.96 90.99 L 146.96 98.64 L 157.06 100.56 C 157.40 102.57 157.92 104.51 158.61 106.38 L 150.67 112.80 L 154.50 119.42 L 164.19 116.04 C 165.48 117.58 166.90 119.00 168.44 120.29 L 164.77 129.82 L 171.39 133.64 L 178.10 125.87 C 179.97 126.56 181.91 127.08 183.91 127.43 L 185.51 137.52 L 193.16 137.52 L 195.09 127.43 C 197.09 127.08 199.03 126.57 200.90 125.88 L 207.32 133.82 L 213.94 130.00 L 210.56 120.29 C 212.10 119.01 213.53 117.58 214.81 116.04 L 224.34 119.72 L 228.17 113.09 L 220.40 106.38 C 221.08 104.52 221.61 102.58 221.96 100.57 L 232.04 98.99 Z M 189.43 117.48 C 177.08 117.48 167.05 107.46 167.05 95.10 C 167.05 82.74 177.07 72.72 189.43 72.72 C 201.79 72.72 211.81 82.74 211.81 95.10 C 211.81 107.46 201.79 117.48 189.43 117.48 Z" fill="#ffffff" fill-opacity="0.67" fill-rule="nonzero" group-id="2,8" node-id="308" stroke="none" target-height="85.07001" target-width="85.07999" target-x="146.96" target-y="52.45"></path><path d="M 194.40 139.02 L 184.23 139.02 L 182.60 128.71 C 181.23 128.43 179.88 128.06 178.57 127.63 L 171.72 135.56 L 162.91 130.48 L 166.66 120.74 C 165.62 119.81 164.64 118.83 163.72 117.79 L 153.82 121.25 L 148.73 112.44 L 156.84 105.88 C 156.40 104.55 156.04 103.20 155.77 101.85 L 145.47 99.88 L 145.47 89.71 L 155.78 88.08 C 156.06 86.72 156.42 85.38 156.86 84.06 L 148.92 77.21 L 154.00 68.40 L 163.76 72.15 C 164.67 71.11 165.66 70.13 166.70 69.21 L 163.24 59.30 L 172.05 54.21 L 178.61 62.33 C 179.93 61.89 181.28 61.53 182.64 61.26 L 184.60 50.95 L 194.78 50.95 L 196.40 61.26 C 197.77 61.55 199.12 61.91 200.43 62.34 L 207.28 54.41 L 216.08 59.49 L 212.34 69.24 C 213.37 70.16 214.35 71.15 215.27 72.19 L 225.19 68.74 L 230.27 77.54 L 222.16 84.10 C 222.60 85.42 222.96 86.77 223.23 88.13 L 233.54 90.10 L 233.54 100.27 L 223.23 101.89 C 222.95 103.25 222.59 104.59 222.15 105.91 L 230.09 112.77 L 225.00 121.58 L 215.25 117.82 C 214.33 118.86 213.35 119.85 212.31 120.76 L 215.76 130.68 L 206.96 135.76 L 200.39 127.64 C 199.09 128.08 197.74 128.44 196.37 128.72 L 194.40 139.02 Z M 186.79 136.02 L 191.91 136.02 L 193.81 126.13 L 194.83 125.95 C 196.74 125.62 198.60 125.12 200.38 124.47 L 201.39 124.09 L 207.68 131.88 L 212.11 129.32 L 208.80 119.80 L 209.60 119.14 C 211.06 117.92 212.43 116.55 213.65 115.08 L 214.34 114.25 L 223.69 117.85 L 226.25 113.41 L 218.63 106.83 L 218.99 105.86 C 219.65 104.07 220.15 102.20 220.48 100.31 L 220.66 99.25 L 230.54 97.70 L 230.54 92.58 L 220.63 90.69 L 220.46 89.66 C 220.14 87.77 219.65 85.91 218.98 84.12 L 218.61 83.11 L 226.39 76.82 L 223.83 72.38 L 214.32 75.70 L 213.65 74.90 C 212.43 73.43 211.06 72.07 209.59 70.84 L 208.77 70.15 L 212.36 60.81 L 207.93 58.24 L 201.35 65.87 L 200.37 65.50 C 198.61 64.85 196.74 64.35 194.83 64.02 L 193.77 63.84 L 192.21 53.95 L 187.09 53.95 L 185.20 63.84 L 184.17 64.02 C 182.29 64.34 180.42 64.84 178.62 65.50 L 177.62 65.87 L 171.32 58.09 L 166.89 60.65 L 170.21 70.17 L 169.41 70.84 C 167.93 72.06 166.57 73.42 165.36 74.89 L 164.67 75.72 L 155.32 72.12 L 152.75 76.56 L 160.37 83.14 L 160.01 84.11 C 159.36 85.90 158.86 87.77 158.53 89.66 L 158.35 90.72 L 148.46 92.27 L 148.46 97.40 L 158.36 99.29 L 158.53 100.31 C 158.85 102.19 159.35 104.05 160.01 105.86 L 160.38 106.87 L 152.61 113.16 L 155.17 117.60 L 164.68 114.28 L 165.34 115.08 C 166.56 116.54 167.93 117.91 169.40 119.14 L 170.22 119.83 L 166.62 129.16 L 171.06 131.73 L 177.64 124.11 L 178.62 124.47 C 180.40 125.12 182.27 125.62 184.17 125.95 L 185.22 126.14 L 186.79 136.02 Z M 189.43 118.98 C 176.26 118.98 165.55 108.27 165.55 95.10 C 165.55 81.93 176.26 71.22 189.43 71.22 C 202.59 71.22 213.31 81.93 213.31 95.10 C 213.31 108.27 202.59 118.98 189.43 118.98 Z M 189.43 74.22 C 177.92 74.22 168.55 83.59 168.55 95.10 C 168.55 106.61 177.92 115.98 189.43 115.98 C 200.94 115.98 210.31 106.61 210.31 95.10 C 210.31 83.59 200.94 74.22 189.43 74.22 Z" fill="#ccccde" fill-opacity="0.67" fill-rule="nonzero" group-id="2,8" node-id="310" stroke="none" target-height="88.07001" target-width="88.06999" target-x="145.47" target-y="50.95"></path></g><g node-id="402"><path d="M 189.51 84.90 C 195.07 84.90 199.59 89.42 199.59 94.99 C 199.59 100.56 195.07 105.07 189.51 105.07 C 183.93 105.07 179.42 100.56 179.42 94.99 C 179.42 89.42 183.93 84.90 189.51 84.90 Z" fill="#dbdbed" fill-opacity="0.67" fill-rule="nonzero" group-id="2,9" node-id="315" stroke="none" target-height="20.169998" target-width="20.169998" target-x="179.42" target-y="84.9"></path><path d="M 189.51 106.57 C 183.12 106.57 177.92 101.38 177.92 94.99 C 177.92 88.60 183.12 83.40 189.51 83.40 C 195.89 83.40 201.09 88.60 201.09 94.99 C 201.09 101.38 195.89 106.57 189.51 106.57 Z M 189.51 86.40 C 184.77 86.40 180.92 90.25 180.92 94.99 C 180.92 99.72 184.77 103.57 189.51 103.57 C 194.24 103.57 198.09 99.72 198.09 94.99 C 198.09 90.25 194.24 86.40 189.51 86.40 Z" fill="#ccccde" fill-opacity="0.67" fill-rule="nonzero" group-id="2,9" node-id="317" stroke="none" target-height="23.169998" target-width="23.169998" target-x="177.92" target-y="83.4"></path></g></g><g node-id="396"><path d="M 70.09 182.99 C 80.23 181.72 89.48 188.90 90.76 199.04 C 92.04 209.18 84.85 218.43 74.72 219.70 C 64.58 220.98 55.32 213.80 54.05 203.66 C 52.77 193.52 59.95 184.27 70.09 182.99 Z" fill="#f0f0ff" fill-opacity="0.69" fill-rule="nonzero" group-id="3" node-id="323" stroke="none" target-height="39.259995" target-width="39.27" target-x="52.77" target-y="181.72"></path><g node-id="403"><path d="M 106.33 199.46 L 105.57 193.40 L 97.38 192.88 C 96.91 191.33 96.30 189.84 95.57 188.44 L 101.22 182.56 L 97.53 177.70 L 90.18 181.34 C 89.01 180.25 87.74 179.27 86.39 178.40 L 88.35 170.48 L 82.72 168.12 L 78.18 174.94 C 76.64 174.59 75.05 174.36 73.43 174.29 L 71.16 166.46 L 65.10 167.22 L 64.58 175.41 C 63.03 175.88 61.54 176.48 60.14 177.22 L 54.26 171.57 L 49.40 175.26 L 53.05 182.61 C 51.95 183.78 50.97 185.05 50.10 186.40 L 42.18 184.44 L 39.82 190.06 L 46.64 194.60 C 46.29 196.15 46.06 197.74 46.00 199.36 L 38.16 201.63 L 38.92 207.69 L 47.11 208.21 C 47.58 209.76 48.19 211.25 48.92 212.65 L 43.27 218.53 L 46.96 223.39 L 54.31 219.74 C 55.48 220.84 56.75 221.82 58.10 222.69 L 56.14 230.61 L 61.77 232.97 L 66.31 226.15 C 67.85 226.50 69.44 226.72 71.06 226.79 L 73.33 234.63 L 79.39 233.86 L 79.91 225.68 C 81.47 225.20 82.95 224.60 84.35 223.87 L 90.23 229.52 L 95.09 225.83 L 91.45 218.48 C 92.55 217.31 93.52 216.04 94.39 214.69 L 102.31 216.65 L 104.68 211.02 L 97.85 206.48 C 98.21 204.94 98.43 203.35 98.50 201.73 L 106.33 199.46 Z M 74.44 218.35 C 64.65 219.58 55.72 212.65 54.48 202.86 C 53.25 193.08 60.19 184.14 69.97 182.91 C 79.76 181.68 88.69 188.61 89.92 198.40 C 91.16 208.19 84.22 217.12 74.44 218.35 Z" fill="#ffffff" fill-opacity="0.69" fill-rule="nonzero" group-id="3,10" node-id="327" stroke="none" target-height="68.17" target-width="68.17" target-x="38.16" target-y="166.46"></path><path d="M 72.25 236.28 L 69.91 228.22 C 68.93 228.14 67.95 228.00 66.99 227.82 L 62.33 234.83 L 54.38 231.49 L 56.39 223.34 C 55.58 222.78 54.80 222.18 54.06 221.54 L 46.51 225.28 L 41.30 218.41 L 47.11 212.37 C 46.69 211.49 46.32 210.57 46.00 209.64 L 37.59 209.10 L 36.51 200.54 L 44.56 198.21 C 44.64 197.24 44.78 196.26 44.97 195.29 L 37.95 190.62 L 41.30 182.67 L 49.44 184.69 C 50.01 183.88 50.61 183.10 51.25 182.36 L 47.51 174.81 L 54.38 169.59 L 60.42 175.40 C 61.30 174.99 62.21 174.62 63.15 174.29 L 63.69 165.89 L 72.25 164.81 L 74.58 172.86 C 75.55 172.94 76.53 173.08 77.50 173.26 L 82.16 166.25 L 90.12 169.59 L 88.11 177.74 C 88.91 178.30 89.69 178.91 90.43 179.55 L 97.98 175.81 L 103.19 182.68 L 97.39 188.72 C 97.81 189.61 98.18 190.52 98.50 191.45 L 106.90 191.98 L 107.98 200.55 L 99.93 202.88 C 99.85 203.86 99.71 204.83 99.53 205.80 L 106.54 210.46 L 103.19 218.41 L 95.05 216.40 C 94.49 217.21 93.88 217.98 93.24 218.72 L 96.99 226.27 L 90.11 231.49 L 84.07 225.68 C 83.19 226.09 82.28 226.46 81.34 226.79 L 80.81 235.19 L 72.25 236.28 Z M 65.63 224.45 L 66.65 224.68 C 68.11 225.02 69.61 225.23 71.13 225.29 L 72.20 225.34 L 74.42 232.98 L 77.97 232.53 L 78.48 224.54 L 79.47 224.24 C 80.94 223.79 82.35 223.22 83.66 222.54 L 84.61 222.04 L 90.34 227.55 L 93.20 225.38 L 89.64 218.21 L 90.35 217.45 C 91.37 216.36 92.31 215.16 93.12 213.88 L 93.70 212.98 L 101.42 214.88 L 102.81 211.58 L 96.15 207.15 L 96.39 206.14 C 96.73 204.68 96.94 203.17 97.00 201.66 L 97.05 200.59 L 104.69 198.38 L 104.24 194.82 L 96.25 194.31 L 95.95 193.31 C 95.51 191.87 94.94 190.46 94.25 189.13 L 93.75 188.17 L 99.26 182.44 L 97.09 179.59 L 89.92 183.15 L 89.16 182.44 C 88.06 181.41 86.86 180.48 85.59 179.67 L 84.69 179.09 L 86.59 171.37 L 83.29 169.98 L 78.86 176.63 L 77.85 176.40 C 76.37 176.06 74.86 175.85 73.37 175.79 L 72.29 175.75 L 70.08 168.10 L 66.53 168.55 L 66.02 176.54 L 65.03 176.84 C 63.55 177.29 62.14 177.86 60.84 178.54 L 59.88 179.04 L 54.15 173.54 L 51.30 175.70 L 54.85 182.87 L 54.15 183.63 C 53.12 184.73 52.19 185.93 51.37 187.20 L 50.79 188.11 L 43.07 186.20 L 41.68 189.50 L 48.34 193.93 L 48.10 194.94 C 47.76 196.44 47.55 197.95 47.49 199.42 L 47.45 200.50 L 39.81 202.71 L 40.26 206.27 L 48.24 206.77 L 48.54 207.77 C 48.99 209.24 49.57 210.65 50.25 211.95 L 50.75 212.91 L 45.24 218.64 L 47.41 221.49 L 54.58 217.94 L 55.34 218.65 C 56.42 219.66 57.62 220.60 58.91 221.42 L 59.81 222.00 L 57.91 229.72 L 61.21 231.11 L 65.63 224.45 Z M 72.18 219.99 C 62.46 219.99 54.21 212.71 52.99 203.05 C 51.66 192.45 59.20 182.75 69.79 181.42 C 70.59 181.32 71.42 181.27 72.22 181.27 C 81.95 181.27 90.20 188.55 91.41 198.21 C 92.06 203.34 90.67 208.42 87.50 212.50 C 84.33 216.59 79.76 219.19 74.62 219.84 C 73.81 219.94 72.99 219.99 72.18 219.99 Z M 72.22 184.27 C 71.54 184.27 70.84 184.31 70.16 184.40 C 61.21 185.52 54.85 193.72 55.97 202.67 C 57.00 210.84 63.97 216.99 72.18 216.99 C 72.87 216.99 73.56 216.95 74.25 216.86 C 78.59 216.32 82.45 214.12 85.13 210.66 C 87.81 207.21 88.98 202.92 88.44 198.58 C 87.41 190.42 80.44 184.27 72.22 184.27 Z" fill="#ccccde" fill-opacity="0.69" fill-rule="nonzero" group-id="3,10" node-id="329" stroke="none" target-height="71.47" target-width="71.47" target-x="36.51" target-y="164.81"></path></g><g node-id="404"><path d="M 80.30 200.53 C 80.30 204.98 76.70 208.58 72.25 208.58 C 67.81 208.58 64.20 204.98 64.20 200.53 C 64.20 196.09 67.81 192.48 72.25 192.48 C 76.70 192.48 80.30 196.09 80.30 200.53 Z" fill="#dbdbed" fill-opacity="0.69" fill-rule="nonzero" group-id="3,11" node-id="334" stroke="none" target-height="16.100006" target-width="16.100006" target-x="64.2" target-y="192.48"></path><path d="M 72.25 210.08 C 66.99 210.08 62.70 205.80 62.70 200.53 C 62.70 195.27 66.99 190.98 72.25 190.98 C 77.52 190.98 81.80 195.27 81.80 200.53 C 81.80 205.80 77.52 210.08 72.25 210.08 Z M 72.25 193.98 C 68.64 193.98 65.70 196.92 65.70 200.53 C 65.70 204.15 68.64 207.08 72.25 207.08 C 75.86 207.08 78.80 204.15 78.80 200.53 C 78.80 196.92 75.86 193.98 72.25 193.98 Z" fill="#ccccde" fill-opacity="0.69" fill-rule="nonzero" group-id="3,11" node-id="336" stroke="none" target-height="19.100006" target-width="19.100002" target-x="62.7" target-y="190.98"></path></g></g><path d="M 86.08 202.33 L 44.94 131.08 L 86.08 59.83 L 168.35 59.83 L 209.48 131.08 L 168.35 202.33 Z" fill="#ff7f91" fill-rule="nonzero" node-id="340" stroke="none" target-height="142.5" target-width="164.54" target-x="44.94" target-y="59.83"></path><path d="M 91.41 68.22 L 173.55 68.22 L 168.53 59.52 L 86.26 59.52 L 45.12 130.76 L 50.21 139.58 Z" fill="#ff9eac" fill-rule="nonzero" node-id="342" stroke="none" target-height="80.06" target-width="128.43001" target-x="45.12" target-y="59.52"></path><path d="M 168.35 59.83 L 159.57 59.83 L 197.48 125.50 L 158.51 192.99 L 80.69 192.99 L 86.08 202.33 L 168.35 202.33 L 209.48 131.08 Z" fill="#e07080" fill-rule="nonzero" node-id="344" stroke="none" target-height="142.5" target-width="128.79" target-x="80.69" target-y="59.83"></path><path d="M 131.37 141.12 C 130.96 146.49 128.42 148.40 125.72 148.40 C 123.04 148.40 120.43 146.49 119.93 141.13 L 115.86 97.03 C 115.37 91.67 119.37 87.29 124.75 87.29 L 125.73 87.29 C 131.11 87.29 135.17 91.68 134.76 97.04 L 131.37 141.12 Z" fill="#ffffff" fill-rule="nonzero" group-id="4" node-id="348" stroke="none" target-height="61.109993" target-width="19.799995" target-x="115.37" target-y="87.29"></path><path d="M 125.72 149.42 C 123.29 149.42 119.09 148.36 118.44 141.27 L 114.37 97.17 C 114.09 94.15 115.02 91.30 117.00 89.14 C 118.97 86.98 121.72 85.79 124.75 85.79 L 125.73 85.79 C 128.75 85.79 131.52 86.98 133.51 89.14 C 135.51 91.29 136.49 94.14 136.25 97.16 L 132.86 141.24 C 132.32 148.36 128.16 149.42 125.72 149.42 Z M 124.75 88.79 C 122.57 88.79 120.61 89.63 119.21 91.16 C 117.81 92.69 117.16 94.73 117.36 96.89 L 121.43 141.00 C 121.88 145.86 124.09 146.42 125.72 146.42 C 127.46 146.42 129.50 145.81 129.87 141.01 L 133.26 96.93 C 133.43 94.76 132.74 92.71 131.31 91.17 C 129.89 89.64 127.90 88.79 125.72 88.79 L 124.75 88.79 Z" fill="#6e6e96" fill-rule="nonzero" group-id="4" node-id="350" stroke="none" target-height="63.629997" target-width="22.40001" target-x="114.09" target-y="85.79"></path><path d="M 135.46 165.05 C 135.46 170.11 131.36 174.20 126.31 174.20 C 121.25 174.20 117.16 170.11 117.16 165.05 C 117.16 160.00 121.25 155.90 126.31 155.90 C 131.36 155.90 135.46 160.00 135.46 165.05 Z" fill="#ffffff" fill-rule="nonzero" group-id="5" node-id="355" stroke="none" target-height="18.300003" target-width="18.300003" target-x="117.16" target-y="155.9"></path><path d="M 126.31 175.70 C 120.43 175.70 115.66 170.93 115.66 165.05 C 115.66 159.18 120.43 154.40 126.31 154.40 C 132.18 154.40 136.96 159.18 136.96 165.05 C 136.96 170.93 132.18 175.70 126.31 175.70 Z M 126.31 157.40 C 122.09 157.40 118.66 160.83 118.66 165.05 C 118.66 169.27 122.09 172.70 126.31 172.70 C 130.52 172.70 133.96 169.27 133.96 165.05 C 133.96 160.83 130.52 157.40 126.31 157.40 Z" fill="#6e6e96" fill-rule="nonzero" group-id="5" node-id="357" stroke="none" target-height="21.300003" target-width="21.300003" target-x="115.66" target-y="154.4"></path><path d="M 55.04 131.22 L 91.15 192.99 L 80.69 192.99 L 50.17 140.14 Z" fill="#e07080" fill-rule="nonzero" node-id="360" stroke="none" target-height="61.770004" target-width="40.980003" target-x="50.17" target-y="131.22"></path><path d="M 168.35 203.83 L 86.08 203.83 C 85.54 203.83 85.04 203.54 84.78 203.08 L 43.64 131.83 C 43.37 131.37 43.37 130.79 43.64 130.33 L 84.78 59.08 C 85.05 58.62 85.54 58.33 86.08 58.33 L 168.35 58.33 C 168.88 58.33 169.38 58.62 169.65 59.08 L 210.78 130.33 C 211.05 130.79 211.05 131.37 210.78 131.83 L 169.65 203.08 C 169.38 203.54 168.88 203.83 168.35 203.83 Z M 86.94 200.83 L 167.48 200.83 L 207.75 131.08 L 167.48 61.33 L 86.94 61.33 L 46.67 131.08 L 86.94 200.83 Z" fill="#6e6e96" fill-rule="nonzero" node-id="362" stroke="none" target-height="145.5" target-width="167.68001" target-x="43.37" target-y="58.33"></path><path d="M 249.89 110.72 C 250.65 108.38 253.04 105.51 255.20 104.34 L 255.21 104.33 C 257.38 103.16 257.38 101.24 255.21 100.07 L 255.20 100.07 C 253.04 98.89 250.52 96.25 249.62 94.20 C 248.71 92.14 247.22 92.14 246.31 94.20 C 245.40 96.26 242.88 98.89 240.72 100.07 L 240.71 100.07 C 238.54 101.24 238.54 103.16 240.71 104.33 L 240.72 104.34 C 242.88 105.51 245.27 108.38 246.03 110.72 L 246.58 112.37 C 247.34 114.71 248.58 114.71 249.34 112.37 L 249.89 110.72 Z" fill="#ffbf00" fill-rule="nonzero" group-id="6,12" node-id="367" stroke="none" target-height="22.57" target-width="18.840012" target-x="238.54" target-y="92.14"></path><path d="M 25.26 47.97 C 25.98 45.78 28.22 43.09 30.25 42.00 L 30.25 41.99 C 32.28 40.89 32.28 39.10 30.25 38.00 L 30.25 38.00 C 28.22 36.90 25.86 34.43 25.01 32.50 C 24.16 30.58 22.77 30.58 21.92 32.50 C 21.07 34.43 18.71 36.90 16.69 38.00 L 16.68 38.00 C 14.65 39.10 14.65 40.90 16.68 41.99 L 16.69 42.00 C 18.71 43.09 20.96 45.78 21.67 47.97 L 22.17 49.52 C 22.89 51.71 24.05 51.71 24.77 49.52 L 25.26 47.97 Z" fill="#ffb0b8" fill-rule="nonzero" group-id="6,13" node-id="372" stroke="none" target-height="21.13" target-width="17.63" target-x="14.65" target-y="30.58"></path><path d="M 10.76 190.45 C 11.41 188.46 13.44 186.02 15.28 185.02 L 15.29 185.02 C 17.13 184.02 17.13 182.39 15.29 181.39 L 15.28 181.39 C 13.44 180.40 11.30 178.15 10.53 176.40 C 9.76 174.65 8.49 174.65 7.72 176.40 C 6.95 178.15 4.81 180.40 2.97 181.39 L 2.96 181.39 C 1.12 182.39 1.12 184.02 2.96 185.02 L 2.97 185.02 C 4.81 186.02 6.84 188.46 7.49 190.45 L 7.95 191.85 C 8.60 193.84 9.66 193.84 10.30 191.85 L 10.76 190.45 Z" fill="#7fdcff" fill-rule="nonzero" group-id="6,14" node-id="377" stroke="none" target-height="19.190002" target-width="16.009998" target-x="1.12" target-y="174.65"></path><path d="M 207.51 15.84 C 208.00 14.33 209.54 12.48 210.94 11.73 L 210.94 11.73 C 212.34 10.97 212.34 9.74 210.94 8.98 L 210.94 8.98 C 209.55 8.23 207.93 6.53 207.34 5.21 C 206.76 3.88 205.80 3.88 205.22 5.21 C 204.63 6.53 203.01 8.23 201.62 8.98 L 201.61 8.98 C 200.22 9.74 200.22 10.97 201.61 11.73 L 201.62 11.73 C 203.01 12.48 204.55 14.33 205.04 15.84 L 205.39 16.90 C 205.88 18.41 206.68 18.41 207.17 16.90 L 207.51 15.84 Z" fill="#ffb0b8" fill-rule="nonzero" group-id="6,15" node-id="382" stroke="none" target-height="14.53" target-width="12.119995" target-x="200.22" target-y="3.88"></path><path d="M 162.74 235.00 C 163.23 233.50 164.77 231.65 166.16 230.90 L 166.17 230.90 C 167.56 230.14 167.56 228.90 166.17 228.15 L 166.16 228.15 C 164.77 227.39 163.16 225.69 162.57 224.37 C 161.98 223.05 161.02 223.05 160.44 224.37 C 159.85 225.69 158.24 227.39 156.85 228.15 L 156.84 228.15 C 155.45 228.90 155.45 230.14 156.84 230.90 L 156.85 230.90 C 158.24 231.65 159.78 233.50 160.27 235.00 L 160.62 236.07 C 161.11 237.57 161.91 237.57 162.40 236.07 L 162.74 235.00 Z" fill="#ffb0b8" fill-rule="nonzero" group-id="6,16" node-id="387" stroke="none" target-height="14.520004" target-width="12.110001" target-x="155.45" target-y="223.05"></path><path d="M 25.24 100.55 C 25.73 99.04 27.27 97.19 28.66 96.44 L 28.67 96.44 C 30.06 95.69 30.06 94.45 28.67 93.70 L 28.66 93.69 C 27.27 92.94 25.66 91.24 25.07 89.92 C 24.48 88.60 23.52 88.60 22.94 89.92 C 22.35 91.24 20.74 92.94 19.35 93.69 L 19.34 93.70 C 17.95 94.45 17.95 95.68 19.34 96.44 L 19.35 96.44 C 20.74 97.19 22.28 99.05 22.77 100.55 L 23.12 101.61 C 23.61 103.12 24.41 103.12 24.89 101.61 L 25.24 100.55 Z" fill="#ffff00" fill-rule="nonzero" group-id="6,17" node-id="392" stroke="none" target-height="14.520004" target-width="12.109999" target-x="17.95" target-y="88.6"></path></svg>